<svg width="1129" height="192" viewBox="0 0 1129 192" fill="none" xmlns="http://www.w3.org/2000/svg">
<path d="M18.1438 74.4169H0L23.5665 4.57006H46.0416L69.6081 74.4169H51.4643L35.0598 22.1682H34.5142L18.1438 74.4169ZM15.7224 46.9283H53.647V59.7518H15.7224V46.9283ZM77.1282 74.4169V22.0318H92.987V31.6493H93.5668C94.6581 28.4662 96.4998 25.9538 99.0918 24.1122C101.684 22.2705 104.776 21.3497 108.368 21.3497C112.006 21.3497 115.121 22.2819 117.713 24.1463C120.305 26.0107 121.953 28.5117 122.658 31.6493H123.204C124.182 28.5344 126.091 26.0448 128.934 24.1804C131.776 22.2932 135.129 21.3497 138.994 21.3497C143.951 21.3497 147.975 22.9412 151.068 26.1243C154.16 29.2847 155.706 33.6274 155.706 39.1524V74.4169H139.029V42.9722C139.029 40.3575 138.358 38.368 137.016 37.0038C135.675 35.6169 133.936 34.9234 131.798 34.9234C129.502 34.9234 127.694 35.6737 126.376 37.1743C125.08 38.6522 124.432 40.6417 124.432 43.1427V74.4169H108.402V42.8016C108.402 40.3688 107.743 38.4476 106.424 37.0379C105.106 35.6282 103.366 34.9234 101.206 34.9234C99.7511 34.9234 98.4665 35.2758 97.3524 35.9807C96.2383 36.6628 95.363 37.6404 94.7263 38.9137C94.1125 40.1869 93.8055 41.6875 93.8055 43.4155V74.4169H77.1282ZM166.04 94.0613V22.0318H182.546V31.0013H183.058C183.74 29.4098 184.706 27.8751 185.957 26.3972C187.23 24.9193 188.844 23.7143 190.8 22.7821C192.778 21.8271 195.143 21.3497 197.894 21.3497C201.531 21.3497 204.931 22.3046 208.091 24.2145C211.274 26.1243 213.843 29.0687 215.799 33.0476C217.754 37.0265 218.732 42.0968 218.732 48.2584C218.732 54.1927 217.788 59.1606 215.901 63.1623C214.037 67.1639 211.513 70.1651 208.33 72.166C205.169 74.1668 201.657 75.1672 197.791 75.1672C195.154 75.1672 192.869 74.7352 190.936 73.8712C189.004 73.0072 187.378 71.8704 186.059 70.4607C184.763 69.051 183.763 67.5391 183.058 65.9248H182.717V94.0613H166.04ZM182.376 48.2243C182.376 51.0437 182.751 53.4992 183.501 55.591C184.274 57.6827 185.377 59.3084 186.81 60.468C188.265 61.6048 190.004 62.1732 192.028 62.1732C194.074 62.1732 195.813 61.6048 197.246 60.468C198.678 59.3084 199.758 57.6827 200.486 55.591C201.236 53.4992 201.611 51.0437 201.611 48.2243C201.611 45.405 201.236 42.9608 200.486 40.8918C199.758 38.8227 198.678 37.2198 197.246 36.083C195.836 34.9461 194.097 34.3777 192.028 34.3777C189.981 34.3777 188.242 34.9348 186.81 36.0489C185.377 37.163 184.274 38.7545 183.501 40.8236C182.751 42.8926 182.376 45.3595 182.376 48.2243ZM244.148 4.57006V74.4169H227.471V4.57006H244.148ZM254.764 74.4169V22.0318H271.441V74.4169H254.764ZM263.119 15.927C260.777 15.927 258.765 15.1539 257.083 13.6079C255.4 12.039 254.559 10.1519 254.559 7.94644C254.559 5.76373 255.4 3.89933 257.083 2.35324C258.765 0.784414 260.777 0 263.119 0C265.484 0 267.496 0.784414 269.156 2.35324C270.838 3.89933 271.68 5.76373 271.68 7.94644C271.68 10.1519 270.838 12.039 269.156 13.6079C267.496 15.1539 265.484 15.927 263.119 15.927ZM311.83 22.0318V34.3095H278.134V22.0318H311.83ZM285.16 74.4169V19.3716C285.16 15.3245 285.921 11.9708 287.445 9.31064C288.968 6.62772 291.082 4.6269 293.788 3.30818C296.494 1.96672 299.62 1.29599 303.167 1.29599C305.486 1.29599 307.669 1.47788 309.715 1.84167C311.784 2.18272 313.319 2.48966 314.319 2.7625L311.659 14.9721C311.045 14.7674 310.295 14.5969 309.408 14.4605C308.544 14.3241 307.726 14.2558 306.953 14.2558C304.997 14.2558 303.656 14.6878 302.928 15.5518C302.201 16.4158 301.837 17.5981 301.837 19.0987V74.4169H285.16ZM330.05 94.0613C328.049 94.0613 326.162 93.9021 324.389 93.5838C322.615 93.2883 321.092 92.8904 319.819 92.3902L323.502 80.2829C325.139 80.8286 326.617 81.1469 327.936 81.2379C329.277 81.3288 330.425 81.1128 331.38 80.5899C332.358 80.0897 333.108 79.1916 333.631 77.8956L334.279 76.3268L315.658 22.0318H333.12L342.771 59.4107H343.317L353.105 22.0318H370.669L350.922 79.4303C349.967 82.2951 348.615 84.8189 346.864 87.0016C345.136 89.207 342.896 90.935 340.145 92.1855C337.417 93.436 334.052 94.0613 330.05 94.0613ZM394.218 4.57006H413.078L427.846 33.798H428.46L443.227 4.57006H462.087L436.543 51.0891V74.4169H419.763V51.0891L394.218 4.57006ZM481.518 75.4059C476.016 75.4059 471.287 74.2805 467.331 72.0295C463.397 69.7559 460.362 66.5955 458.225 62.5484C456.11 58.4785 455.053 53.7607 455.053 48.3948C455.053 43.0063 456.11 38.2884 458.225 34.2413C460.362 30.1715 463.397 27.0111 467.331 24.7602C471.287 22.4865 476.016 21.3497 481.518 21.3497C487.021 21.3497 491.739 22.4865 495.672 24.7602C499.628 27.0111 502.663 30.1715 504.778 34.2413C506.915 38.2884 507.984 43.0063 507.984 48.3948C507.984 53.7607 506.915 58.4785 504.778 62.5484C502.663 66.5955 499.628 69.7559 495.672 72.0295C491.739 74.2805 487.021 75.4059 481.518 75.4059ZM481.621 62.8212C483.622 62.8212 485.315 62.2073 486.702 60.9796C488.089 59.7518 489.147 58.0465 489.874 55.8638C490.624 53.6811 491 51.1573 491 48.2925C491 45.3822 490.624 42.8357 489.874 40.653C489.147 38.4703 488.089 36.7651 486.702 35.5373C485.315 34.3095 483.622 33.6956 481.621 33.6956C479.552 33.6956 477.801 34.3095 476.369 35.5373C474.959 36.7651 473.879 38.4703 473.129 40.653C472.401 42.8357 472.037 45.3822 472.037 48.2925C472.037 51.1573 472.401 53.6811 473.129 55.8638C473.879 58.0465 474.959 59.7518 476.369 60.9796C477.801 62.2073 479.552 62.8212 481.621 62.8212ZM550.325 51.8053V22.0318H566.968V74.4169H551.075V64.6629H550.53C549.37 67.8687 547.392 70.4152 544.595 72.3024C541.822 74.1668 538.468 75.099 534.535 75.099C530.965 75.099 527.827 74.2805 525.122 72.6434C522.416 71.0064 520.313 68.7214 518.812 65.7883C517.312 62.8326 516.55 59.3766 516.527 55.4205V22.0318H533.204V52.1464C533.227 54.9885 533.977 57.228 535.455 58.865C536.933 60.5021 538.945 61.3206 541.492 61.3206C543.152 61.3206 544.641 60.9568 545.96 60.2292C547.301 59.4789 548.358 58.3989 549.131 56.9893C549.927 55.5569 550.325 53.8289 550.325 51.8053ZM577.583 74.4169V22.0318H593.783V31.5811H594.329C595.284 28.1252 596.841 25.5559 599.001 23.8734C601.161 22.1682 603.674 21.3156 606.538 21.3156C607.311 21.3156 608.107 21.3724 608.926 21.4861C609.744 21.577 610.506 21.7248 611.211 21.9295V36.424C610.415 36.1512 609.369 35.9352 608.073 35.776C606.8 35.6169 605.663 35.5373 604.663 35.5373C602.685 35.5373 600.9 35.9807 599.308 36.8674C597.739 37.7314 596.5 38.9478 595.591 40.5166C594.704 42.0627 594.261 43.8816 594.261 45.9734V74.4169H577.583ZM654.498 4.57006L670.118 55.7274H670.698L686.318 4.57006H705.212L681.646 74.4169H659.171L635.604 4.57006H654.498ZM730.902 75.4059C725.4 75.4059 720.67 74.2805 716.714 72.0295C712.781 69.7559 709.746 66.5955 707.608 62.5484C705.494 58.4785 704.437 53.7607 704.437 48.3948C704.437 43.0063 705.494 38.2884 707.608 34.2413C709.746 30.1715 712.781 27.0111 716.714 24.7602C720.67 22.4865 725.4 21.3497 730.902 21.3497C736.404 21.3497 741.122 22.4865 745.055 24.7602C749.012 27.0111 752.047 30.1715 754.161 34.2413C756.299 38.2884 757.367 43.0063 757.367 48.3948C757.367 53.7607 756.299 58.4785 754.161 62.5484C752.047 66.5955 749.012 69.7559 745.055 72.0295C741.122 74.2805 736.404 75.4059 730.902 75.4059ZM731.004 62.8212C733.005 62.8212 734.699 62.2073 736.086 60.9796C737.473 59.7518 738.53 58.0465 739.258 55.8638C740.008 53.6811 740.383 51.1573 740.383 48.2925C740.383 45.3822 740.008 42.8357 739.258 40.653C738.53 38.4703 737.473 36.7651 736.086 35.5373C734.699 34.3095 733.005 33.6956 731.004 33.6956C728.935 33.6956 727.185 34.3095 725.752 35.5373C724.342 36.7651 723.262 38.4703 722.512 40.653C721.785 42.8357 721.421 45.3822 721.421 48.2925C721.421 51.1573 721.785 53.6811 722.512 55.8638C723.262 58.0465 724.342 59.7518 725.752 60.9796C727.185 62.2073 728.935 62.8212 731.004 62.8212ZM765.911 74.4169V22.0318H782.588V74.4169H765.911ZM774.266 15.927C771.924 15.927 769.912 15.1539 768.23 13.6079C766.547 12.039 765.706 10.1519 765.706 7.94644C765.706 5.76373 766.547 3.89933 768.23 2.35324C769.912 0.784414 771.924 0 774.266 0C776.631 0 778.643 0.784414 780.303 2.35324C781.985 3.89933 782.827 5.76373 782.827 7.94644C782.827 10.1519 781.985 12.039 780.303 13.6079C778.643 15.1539 776.631 15.927 774.266 15.927ZM817.656 75.4059C812.131 75.4059 807.391 74.2691 803.435 71.9954C799.501 69.7218 796.477 66.5614 794.363 62.5143C792.248 58.4444 791.191 53.7379 791.191 48.3948C791.191 43.029 792.248 38.3225 794.363 34.2754C796.5 30.2056 799.535 27.0338 803.469 24.7602C807.425 22.4865 812.143 21.3497 817.622 21.3497C822.465 21.3497 826.683 22.225 830.275 23.9757C833.89 25.7265 836.71 28.2047 838.733 31.4106C840.779 34.5937 841.859 38.3339 841.973 42.6311H826.387C826.069 39.9482 825.159 37.8451 823.659 36.3217C822.181 34.7984 820.248 34.0367 817.861 34.0367C815.928 34.0367 814.234 34.5824 812.779 35.6737C811.324 36.7423 810.187 38.3339 809.369 40.4484C808.573 42.5402 808.175 45.1321 808.175 48.2243C808.175 51.3165 808.573 53.9312 809.369 56.0684C810.187 58.1829 811.324 59.7859 812.779 60.8772C814.234 61.9459 815.928 62.4802 817.861 62.4802C819.407 62.4802 820.771 62.1505 821.953 61.4911C823.159 60.8318 824.148 59.8655 824.921 58.5922C825.694 57.2962 826.182 55.7274 826.387 53.8857H841.973C841.814 58.2057 840.734 61.98 838.733 65.2086C836.755 68.4372 833.97 70.9495 830.377 72.7457C826.808 74.5192 822.567 75.4059 817.656 75.4059ZM874.995 75.4059C869.516 75.4059 864.786 74.3259 860.807 72.166C856.851 69.9832 853.805 66.8797 851.667 62.8553C849.553 58.8082 848.496 53.9994 848.496 48.429C848.496 43.0176 849.564 38.2884 851.701 34.2413C853.839 30.1715 856.851 27.0111 860.739 24.7602C864.627 22.4865 869.209 21.3497 874.484 21.3497C878.212 21.3497 881.623 21.9294 884.715 23.089C887.807 24.2486 890.479 25.9652 892.73 28.2389C894.981 30.5125 896.731 33.3205 897.982 36.6628C899.232 39.9823 899.858 43.7907 899.858 48.0879V52.2487H854.328V42.5629H884.34C884.317 40.7895 883.896 39.2093 883.078 37.8223C882.259 36.4354 881.134 35.3554 879.702 34.5824C878.292 33.7866 876.666 33.3887 874.825 33.3887C872.96 33.3887 871.289 33.8093 869.811 34.6506C868.333 35.4691 867.162 36.5946 866.298 38.027C865.434 39.4366 864.98 41.0396 864.934 42.8357V52.6921C864.934 54.8293 865.355 56.7051 866.196 58.3194C867.037 59.9109 868.231 61.1501 869.777 62.0368C871.323 62.9235 873.165 63.3669 875.302 63.3669C876.78 63.3669 878.121 63.1623 879.326 62.753C880.531 62.3437 881.566 61.7412 882.43 60.9454C883.294 60.1497 883.942 59.172 884.374 58.0124L899.687 58.4558C899.05 61.889 897.652 64.8789 895.492 67.4254C893.355 69.9491 890.547 71.9159 887.068 73.3255C883.59 74.7125 879.565 75.4059 874.995 75.4059ZM938.797 74.4169L925.155 22.0318H941.9L948.96 55.591H949.403L956.975 22.0318H973.311L981.087 55.3522H981.53L988.385 22.0318H1005.13L991.455 74.4169H973.618L965.433 43.893H964.853L956.668 74.4169H938.797ZM1011.82 74.4169V22.0318H1028.5V74.4169H1011.82ZM1020.18 15.927C1017.84 15.927 1015.83 15.1539 1014.14 13.6079C1012.46 12.039 1011.62 10.1519 1011.62 7.94644C1011.62 5.76373 1012.46 3.89933 1014.14 2.35324C1015.83 0.784414 1017.84 0 1020.18 0C1022.54 0 1024.56 0.784414 1026.22 2.35324C1027.9 3.89933 1028.74 5.76373 1028.74 7.94644C1028.74 10.1519 1027.9 12.039 1026.22 13.6079C1024.56 15.1539 1022.54 15.927 1020.18 15.927ZM1068.69 22.0318V34.3095H1035.64V22.0318H1068.69ZM1042.56 9.48116H1059.24V57.9442C1059.24 58.9674 1059.4 59.7972 1059.72 60.4339C1060.06 61.0478 1060.55 61.4911 1061.18 61.764C1061.82 62.0141 1062.58 62.1391 1063.47 62.1391C1064.1 62.1391 1064.77 62.0823 1065.48 61.9686C1066.21 61.8322 1066.75 61.7185 1067.12 61.6275L1069.64 73.6666C1068.84 73.8939 1067.72 74.1781 1066.26 74.5192C1064.83 74.8602 1063.11 75.0762 1061.11 75.1672C1057.2 75.3491 1053.85 74.8943 1051.05 73.803C1048.28 72.6889 1046.15 70.9609 1044.68 68.619C1043.22 66.2772 1042.52 63.3328 1042.56 59.7859V9.48116ZM1095 44.541V74.4169H1078.32V4.57006H1094.45V31.6493H1095.03C1096.21 28.4207 1098.15 25.897 1100.83 24.0781C1103.53 22.2591 1106.84 21.3497 1110.75 21.3497C1114.44 21.3497 1117.64 22.1682 1120.37 23.8052C1123.1 25.4195 1125.21 27.7045 1126.71 30.6603C1128.24 33.6161 1128.99 37.072 1128.97 41.0282V74.4169H1112.29V44.3023C1112.31 41.392 1111.58 39.1183 1110.11 37.4813C1108.63 35.8442 1106.55 35.0257 1103.86 35.0257C1102.11 35.0257 1100.57 35.4122 1099.23 36.1853C1097.91 36.9356 1096.87 38.0156 1096.12 39.4253C1095.4 40.8349 1095.02 42.5402 1095 44.541ZM603.938 120.618V190.464H587.056V120.618H603.938ZM631.213 160.589V190.464H614.536V138.079H630.395V147.697H630.975C632.134 144.491 634.112 141.979 636.909 140.16C639.705 138.318 643.036 137.397 646.902 137.397C650.585 137.397 653.779 138.227 656.485 139.887C659.213 141.524 661.328 143.82 662.829 146.776C664.352 149.709 665.102 153.142 665.08 157.076V190.464H648.402V160.35C648.425 157.44 647.686 155.166 646.185 153.529C644.708 151.892 642.65 151.073 640.012 151.073C638.262 151.073 636.716 151.46 635.374 152.233C634.055 152.983 633.032 154.063 632.305 155.473C631.6 156.883 631.236 158.588 631.213 160.589ZM692.082 160.589V190.464H675.405V138.079H691.264V147.697H691.843C693.003 144.491 694.981 141.979 697.778 140.16C700.574 138.318 703.905 137.397 707.77 137.397C711.454 137.397 714.648 138.227 717.354 139.887C720.082 141.524 722.197 143.82 723.697 146.776C725.221 149.709 725.971 153.142 725.948 157.076V190.464H709.271V160.35C709.294 157.44 708.555 155.166 707.054 153.529C705.576 151.892 703.519 151.073 700.881 151.073C699.13 151.073 697.584 151.46 696.243 152.233C694.924 152.983 693.901 154.063 693.173 155.473C692.469 156.883 692.105 158.588 692.082 160.589ZM760.727 191.454C755.224 191.454 750.495 190.328 746.539 188.077C742.606 185.803 739.57 182.643 737.433 178.596C735.319 174.526 734.261 169.808 734.261 164.442C734.261 159.054 735.319 154.336 737.433 150.289C739.57 146.219 742.606 143.059 746.539 140.808C750.495 138.534 755.224 137.397 760.727 137.397C766.229 137.397 770.947 138.534 774.88 140.808C778.836 143.059 781.872 146.219 783.986 150.289C786.123 154.336 787.192 159.054 787.192 164.442C787.192 169.808 786.123 174.526 783.986 178.596C781.872 182.643 778.836 185.803 774.88 188.077C770.947 190.328 766.229 191.454 760.727 191.454ZM760.829 178.869C762.83 178.869 764.524 178.255 765.911 177.027C767.298 175.799 768.355 174.094 769.082 171.911C769.833 169.729 770.208 167.205 770.208 164.34C770.208 161.43 769.833 158.883 769.082 156.701C768.355 154.518 767.298 152.813 765.911 151.585C764.524 150.357 762.83 149.743 760.829 149.743C758.76 149.743 757.009 150.357 755.577 151.585C754.167 152.813 753.087 154.518 752.337 156.701C751.609 158.883 751.246 161.43 751.246 164.34C751.246 167.205 751.609 169.729 752.337 171.911C753.087 174.094 754.167 175.799 755.577 177.027C757.009 178.255 758.76 178.869 760.829 178.869ZM844.863 138.079L826.89 190.464H807.791L789.852 138.079H807.416L817.068 174.162H817.614L827.299 138.079H844.863ZM864.619 191.351C861.276 191.351 858.309 190.794 855.717 189.68C853.148 188.543 851.113 186.838 849.613 184.564C848.135 182.268 847.396 179.392 847.396 175.936C847.396 173.025 847.907 170.57 848.93 168.569C849.954 166.568 851.363 164.943 853.159 163.692C854.956 162.442 857.025 161.498 859.367 160.861C861.708 160.202 864.209 159.759 866.87 159.531C869.848 159.258 872.247 158.974 874.066 158.679C875.885 158.36 877.203 157.917 878.022 157.349C878.863 156.757 879.284 155.928 879.284 154.859V154.688C879.284 152.938 878.681 151.585 877.476 150.63C876.271 149.675 874.646 149.198 872.599 149.198C870.394 149.198 868.62 149.675 867.279 150.63C865.937 151.585 865.085 152.904 864.721 154.586L849.34 154.04C849.794 150.857 850.965 148.015 852.853 145.514C854.762 142.99 857.377 141.012 860.697 139.58C864.039 138.125 868.052 137.397 872.736 137.397C876.078 137.397 879.159 137.795 881.978 138.591C884.797 139.364 887.253 140.501 889.345 142.001C891.437 143.479 893.051 145.298 894.188 147.458C895.347 149.618 895.927 152.085 895.927 154.859V190.464H880.239V183.166H879.829C878.897 184.939 877.704 186.44 876.248 187.668C874.816 188.896 873.122 189.816 871.167 190.43C869.234 191.044 867.052 191.351 864.619 191.351ZM869.769 180.438C871.565 180.438 873.179 180.074 874.611 179.346C876.067 178.619 877.226 177.618 878.09 176.345C878.954 175.049 879.386 173.548 879.386 171.843V166.864C878.909 167.114 878.329 167.341 877.647 167.546C876.987 167.751 876.26 167.944 875.464 168.126C874.668 168.308 873.85 168.467 873.009 168.603C872.167 168.74 871.36 168.865 870.587 168.978C869.018 169.228 867.677 169.615 866.563 170.138C865.471 170.661 864.63 171.343 864.039 172.184C863.471 173.003 863.186 173.98 863.186 175.117C863.186 176.845 863.8 178.164 865.028 179.073C866.278 179.983 867.859 180.438 869.769 180.438ZM935.693 138.079V150.357H902.646V138.079H935.693ZM909.569 125.529H926.246V173.992C926.246 175.015 926.405 175.845 926.724 176.481C927.065 177.095 927.554 177.539 928.19 177.812C928.827 178.062 929.589 178.187 930.475 178.187C931.112 178.187 931.783 178.13 932.487 178.016C933.215 177.88 933.761 177.766 934.124 177.675L936.648 189.714C935.852 189.942 934.727 190.226 933.272 190.567C931.839 190.908 930.123 191.124 928.122 191.215C924.211 191.397 920.858 190.942 918.061 189.851C915.287 188.736 913.161 187.008 911.683 184.667C910.228 182.325 909.523 179.38 909.569 175.833V125.529ZM944.202 190.464V138.079H960.88V190.464H944.202ZM952.558 131.975C950.216 131.975 948.204 131.202 946.522 129.655C944.839 128.087 943.998 126.199 943.998 123.994C943.998 121.811 944.839 119.947 946.522 118.401C948.204 116.832 950.216 116.048 952.558 116.048C954.923 116.048 956.935 116.832 958.595 118.401C960.277 119.947 961.118 121.811 961.118 123.994C961.118 126.199 960.277 128.087 958.595 129.655C956.935 131.202 954.923 131.975 952.558 131.975ZM995.948 191.454C990.446 191.454 985.717 190.328 981.76 188.077C977.827 185.803 974.792 182.643 972.654 178.596C970.54 174.526 969.483 169.808 969.483 164.442C969.483 159.054 970.54 154.336 972.654 150.289C974.792 146.219 977.827 143.059 981.76 140.808C985.717 138.534 990.446 137.397 995.948 137.397C1001.45 137.397 1006.17 138.534 1010.1 140.808C1014.06 143.059 1017.09 146.219 1019.21 150.289C1021.34 154.336 1022.41 159.054 1022.41 164.442C1022.41 169.808 1021.34 174.526 1019.21 178.596C1017.09 182.643 1014.06 185.803 1010.1 188.077C1006.17 190.328 1001.45 191.454 995.948 191.454ZM996.05 178.869C998.051 178.869 999.745 178.255 1001.13 177.027C1002.52 175.799 1003.58 174.094 1004.3 171.911C1005.05 169.729 1005.43 167.205 1005.43 164.34C1005.43 161.43 1005.05 158.883 1004.3 156.701C1003.58 154.518 1002.52 152.813 1001.13 151.585C999.745 150.357 998.051 149.743 996.05 149.743C993.981 149.743 992.231 150.357 990.798 151.585C989.389 152.813 988.309 154.518 987.558 156.701C986.831 158.883 986.467 161.43 986.467 164.34C986.467 167.205 986.831 169.729 987.558 171.911C988.309 174.094 989.389 175.799 990.798 177.027C992.231 178.255 993.981 178.869 996.05 178.869ZM1047.63 160.589V190.464H1030.96V138.079H1046.82V147.697H1047.4C1048.55 144.491 1050.53 141.979 1053.33 140.16C1056.13 138.318 1059.46 137.397 1063.32 137.397C1067.01 137.397 1070.2 138.227 1072.91 139.887C1075.63 141.524 1077.75 143.82 1079.25 146.776C1080.77 149.709 1081.52 153.142 1081.5 157.076V190.464H1064.82V160.35C1064.85 157.44 1064.11 155.166 1062.61 153.529C1061.13 151.892 1059.07 151.073 1056.43 151.073C1054.68 151.073 1053.14 151.46 1051.79 152.233C1050.48 152.983 1049.45 154.063 1048.73 155.473C1048.02 156.883 1047.66 158.588 1047.63 160.589Z" fill="black"/>
<path d="M18.1438 190.464H0L23.5665 120.618H46.0416L69.6081 190.464H51.4643L35.0598 138.216H34.5142L18.1438 190.464ZM15.7224 162.976H53.647V175.799H15.7224V162.976ZM94.0101 120.618V190.464H77.1282V120.618H94.0101ZM138.133 149.129V161.953H105.802V149.129H138.133ZM149.908 190.464V120.618H178.761C183.99 120.618 188.503 121.641 192.3 123.687C196.12 125.711 199.065 128.541 201.134 132.179C203.203 135.794 204.237 140.001 204.237 144.798C204.237 149.618 203.18 153.836 201.065 157.451C198.974 161.043 195.984 163.829 192.096 165.807C188.208 167.785 183.592 168.774 178.249 168.774H160.446V155.473H175.112C177.658 155.473 179.784 155.029 181.489 154.143C183.217 153.256 184.525 152.017 185.411 150.425C186.298 148.811 186.741 146.935 186.741 144.798C186.741 142.638 186.298 140.774 185.411 139.205C184.525 137.613 183.217 136.385 181.489 135.521C179.761 134.657 177.635 134.225 175.112 134.225H166.79V190.464H149.908ZM235.98 191.454C230.478 191.454 225.749 190.328 221.793 188.077C217.859 185.803 214.824 182.643 212.687 178.596C210.572 174.526 209.515 169.808 209.515 164.442C209.515 159.054 210.572 154.336 212.687 150.289C214.824 146.219 217.859 143.059 221.793 140.808C225.749 138.534 230.478 137.397 235.98 137.397C241.483 137.397 246.2 138.534 250.134 140.808C254.09 143.059 257.125 146.219 259.24 150.289C261.377 154.336 262.446 159.054 262.446 164.442C262.446 169.808 261.377 174.526 259.24 178.596C257.125 182.643 254.09 185.803 250.134 188.077C246.2 190.328 241.483 191.454 235.98 191.454ZM236.083 178.869C238.083 178.869 239.777 178.255 241.164 177.027C242.551 175.799 243.608 174.094 244.336 171.911C245.086 169.729 245.461 167.205 245.461 164.34C245.461 161.43 245.086 158.883 244.336 156.701C243.608 154.518 242.551 152.813 241.164 151.585C239.777 150.357 238.083 149.743 236.083 149.743C234.014 149.743 232.263 150.357 230.83 151.585C229.421 152.813 228.341 154.518 227.59 156.701C226.863 158.883 226.499 161.43 226.499 164.34C226.499 167.205 226.863 169.729 227.59 171.911C228.341 174.094 229.421 175.799 230.83 177.027C232.263 178.255 234.014 178.869 236.083 178.869ZM279.652 190.464L266.01 138.079H282.755L289.815 171.639H290.258L297.829 138.079H314.166L321.942 171.4H322.385L329.24 138.079H345.986L332.31 190.464H314.473L306.288 159.941H305.708L297.523 190.464H279.652ZM376.041 191.454C370.561 191.454 365.832 190.374 361.853 188.214C357.897 186.031 354.85 182.927 352.713 178.903C350.598 174.856 349.541 170.047 349.541 164.477C349.541 159.065 350.61 154.336 352.747 150.289C354.884 146.219 357.897 143.059 361.785 140.808C365.673 138.534 370.254 137.397 375.529 137.397C379.258 137.397 382.668 137.977 385.76 139.137C388.853 140.296 391.524 142.013 393.775 144.286C396.026 146.56 397.777 149.368 399.027 152.71C400.278 156.03 400.903 159.838 400.903 164.135V168.296H355.373V158.61H385.385C385.363 156.837 384.942 155.257 384.123 153.87C383.305 152.483 382.179 151.403 380.747 150.63C379.337 149.834 377.712 149.436 375.87 149.436C374.006 149.436 372.334 149.857 370.857 150.698C369.379 151.517 368.208 152.642 367.344 154.075C366.48 155.484 366.025 157.087 365.98 158.883V168.74C365.98 170.877 366.4 172.753 367.241 174.367C368.083 175.959 369.276 177.198 370.822 178.084C372.369 178.971 374.21 179.414 376.347 179.414C377.825 179.414 379.167 179.21 380.372 178.801C381.577 178.391 382.611 177.789 383.475 176.993C384.339 176.197 384.987 175.22 385.419 174.06L400.732 174.503C400.096 177.937 398.698 180.926 396.538 183.473C394.4 185.997 391.592 187.963 388.114 189.373C384.635 190.76 380.611 191.454 376.041 191.454ZM409.421 190.464V138.079H425.621V147.629H426.166C427.121 144.173 428.679 141.604 430.839 139.921C432.999 138.216 435.511 137.363 438.376 137.363C439.149 137.363 439.945 137.42 440.763 137.534C441.582 137.625 442.343 137.772 443.048 137.977V152.472C442.252 152.199 441.206 151.983 439.91 151.824C438.637 151.664 437.5 151.585 436.5 151.585C434.522 151.585 432.737 152.028 431.146 152.915C429.577 153.779 428.338 154.995 427.428 156.564C426.541 158.11 426.098 159.929 426.098 162.021V190.464H409.421ZM471.611 191.454C466.131 191.454 461.402 190.374 457.423 188.214C453.467 186.031 450.42 182.927 448.283 178.903C446.169 174.856 445.111 170.047 445.111 164.477C445.111 159.065 446.18 154.336 448.317 150.289C450.455 146.219 453.467 143.059 457.355 140.808C461.243 138.534 465.825 137.397 471.099 137.397C474.828 137.397 478.239 137.977 481.331 139.137C484.423 140.296 487.095 142.013 489.346 144.286C491.596 146.56 493.347 149.368 494.598 152.71C495.848 156.03 496.473 159.838 496.473 164.135V168.296H450.943V158.61H480.956C480.933 156.837 480.512 155.257 479.694 153.87C478.875 152.483 477.75 151.403 476.317 150.63C474.908 149.834 473.282 149.436 471.44 149.436C469.576 149.436 467.905 149.857 466.427 150.698C464.949 151.517 463.778 152.642 462.914 154.075C462.05 155.484 461.596 157.087 461.55 158.883V168.74C461.55 170.877 461.971 172.753 462.812 174.367C463.653 175.959 464.847 177.198 466.393 178.084C467.939 178.971 469.781 179.414 471.918 179.414C473.396 179.414 474.737 179.21 475.942 178.801C477.147 178.391 478.182 177.789 479.046 176.993C479.91 176.197 480.558 175.22 480.99 174.06L496.303 174.503C495.666 177.937 494.268 180.926 492.108 183.473C489.971 185.997 487.163 187.963 483.684 189.373C480.205 190.76 476.181 191.454 471.611 191.454ZM524.124 191.215C520.259 191.215 516.746 190.214 513.586 188.214C510.425 186.213 507.901 183.211 506.014 179.21C504.127 175.208 503.184 170.24 503.184 164.306C503.184 158.144 504.161 153.074 506.117 149.095C508.072 145.116 510.63 142.172 513.79 140.262C516.973 138.352 520.395 137.397 524.056 137.397C526.807 137.397 529.16 137.875 531.115 138.83C533.071 139.762 534.685 140.967 535.958 142.445C537.232 143.923 538.198 145.457 538.857 147.049H539.198V120.618H555.876V190.464H539.369V181.972H538.857C538.152 183.587 537.152 185.099 535.856 186.508C534.56 187.918 532.934 189.055 530.979 189.919C529.046 190.783 526.761 191.215 524.124 191.215ZM529.922 178.221C531.945 178.221 533.673 177.652 535.106 176.516C536.538 175.356 537.641 173.73 538.414 171.639C539.187 169.547 539.573 167.091 539.573 164.272C539.573 161.407 539.187 158.94 538.414 156.871C537.664 154.802 536.561 153.211 535.106 152.096C533.673 150.982 531.945 150.425 529.922 150.425C527.853 150.425 526.102 150.994 524.67 152.131C523.237 153.267 522.146 154.87 521.396 156.939C520.668 159.008 520.304 161.453 520.304 164.272C520.304 167.091 520.679 169.547 521.43 171.639C522.18 173.73 523.26 175.356 524.67 176.516C526.102 177.652 527.853 178.221 529.922 178.221Z" fill="url(#paint0_linear_1850_398)"/>
<defs>
<linearGradient id="paint0_linear_1850_398" x1="570.984" y1="-18.6213" x2="570.984" y2="200.469" gradientUnits="userSpaceOnUse">
<stop stop-color="#CAE0FD"/>
<stop offset="0.341346" stop-color="#7295E4"/>
<stop offset="0.634615" stop-color="#D4D2FB"/>
<stop offset="0.826923" stop-color="#90BEFB"/>
<stop offset="1" stop-color="#999CFA"/>
</linearGradient>
</defs>
</svg>
